<svg height="512" viewBox="0 0 64 64" width="512" xmlns="http://www.w3.org/2000/svg"><g id="Folder"><path d="m53 27v-8a4 4 0 0 0 -4-4h-18.343a4 4 0 0 1 -2.829-1.172l-3.656-3.656a4 4 0 0 0 -2.829-1.172h-14.343a4 4 0 0 0 -4 4v42h50z" fill="#ddb200"/><path d="m45 21h-34a2 2 0 0 0 -2 2v15.221l3.058-8.552a4 4 0 0 1 3.772-2.669h31.17v-4a2 2 0 0 0 -2-2z" fill="#d1e7f8"/><path d="m57.346 27h-41.516a4 4 0 0 0 -3.772 2.669l-3.058 8.552-6 16.779v2a4 4 0 0 0 4 4h41.17a4 4 0 0 0 3.772-2.669l9.176-26a4 4 0 0 0 -3.772-5.331z" fill="#ffda44"/><path d="m57.346 27h-4.133c-.029.11-.056.221-.095.331l-9.176 26a4 4 0 0 1 -3.772 2.669h-37.17v1a4 4 0 0 0 4 4h41.17a4 4 0 0 0 3.772-2.669l9.176-26a4 4 0 0 0 -3.772-5.331z" fill="#ffcd00"/></g></svg>