<?xml version="1.0"?>
<svg xmlns="http://www.w3.org/2000/svg" viewBox="0 0 64 64" width="512" height="512"><g id="Folder"><path d="M53,27V19a4,4,0,0,0-4-4H30.657a4,4,0,0,1-2.829-1.172l-3.656-3.656A4,4,0,0,0,21.343,9H7a4,4,0,0,0-4,4V55H53Z" style="fill:#cca400"/><path d="M45,21H11a2,2,0,0,0-2,2V38.221l3.058-8.552A4,4,0,0,1,15.83,27H47V23A2,2,0,0,0,45,21Z" style="fill:#d1e7f8"/><path d="M57.346,27H15.83a4,4,0,0,0-3.772,2.669L9,38.221v0L3,55v2a4,4,0,0,0,4,4H48.17a4,4,0,0,0,3.772-2.669l9.176-26A4,4,0,0,0,57.346,27Z" style="fill:#ffda44"/><path d="M57.346,27H53.213c-.029.11-.056.221-.095.331l-9.176,26A4,4,0,0,1,40.17,56H3v1a4,4,0,0,0,4,4H48.17a4,4,0,0,0,3.772-2.669l9.176-26A4,4,0,0,0,57.346,27Z" style="fill:#ffcd00"/><path d="M61.429,28.112A4.944,4.944,0,0,0,57.347,26H54V19a5.006,5.006,0,0,0-5-5H30.657a3.02,3.02,0,0,1-2.121-.878L24.878,9.464A4.966,4.966,0,0,0,21.343,8H7a5.006,5.006,0,0,0-5,5V57a5.006,5.006,0,0,0,5,5H48.17a5.009,5.009,0,0,0,4.716-3.336l9.176-26A4.948,4.948,0,0,0,61.429,28.112ZM4,13a3,3,0,0,1,3-3H21.343a3.02,3.02,0,0,1,2.121.878l3.658,3.658A4.966,4.966,0,0,0,30.657,16H49a3,3,0,0,1,3,3v7H48V23a3,3,0,0,0-3-3H11a3,3,0,0,0-3,3V38.048L4,49.233ZM46,26H15.83a5.005,5.005,0,0,0-4.713,3.332L10,32.455V23a1,1,0,0,1,1-1H45a1,1,0,0,1,1,1Zm14.175,6L51,58a3,3,0,0,1-2.829,2H7a3,3,0,0,1-3-3V55.173L13,30a3,3,0,0,1,2.829-2H57.347a3,3,0,0,1,2.828,4Z" style="fill:#231f20"/></g></svg>
