<?xml version="1.0" encoding="UTF-8"?>
<svg xmlns="http://www.w3.org/2000/svg" xmlns:xlink="http://www.w3.org/1999/xlink" width="150pt" height="150pt" viewBox="0 0 150 150" version="1.1">
<g id="surface1">
<path style=" stroke:none;fill-rule:nonzero;fill:rgb(37.647059%,49.019608%,54.509804%);fill-opacity:1;" d="M 103.980469 39.410156 C 102.339844 30.851562 93.953125 26.167969 87.972656 26.167969 C 82.648438 26.167969 78.058594 27.785156 74.9375 30.652344 C 71.816406 27.785156 67.230469 26.167969 61.90625 26.167969 C 55.921875 26.167969 47.535156 30.851562 45.894531 39.410156 C 39.019531 40.40625 32.582031 45.027344 32.59375 55.785156 L 35.851562 91.625 C 35.90625 92.199219 36.105469 92.746094 36.433594 93.207031 C 40.851562 99.472656 45.613281 108.007812 45.613281 110.882812 C 45.613281 112.679688 47.074219 114.140625 48.875 114.140625 L 101.003906 114.140625 C 102.804688 114.140625 104.261719 112.679688 104.261719 110.882812 C 104.261719 108.007812 109.027344 99.472656 113.445312 93.207031 C 113.769531 92.746094 113.976562 92.199219 114.023438 91.625 L 117.296875 55.492188 C 117.296875 44.988281 110.855469 40.398438 103.980469 39.410156 Z M 103.980469 39.410156 "/>
<path style=" stroke:none;fill-rule:nonzero;fill:rgb(27.058824%,35.294118%,39.215686%);fill-opacity:1;" d="M 87.972656 123.914062 L 61.90625 123.914062 C 60.105469 123.914062 58.648438 125.375 58.648438 127.171875 C 58.648438 137.527344 64.582031 143.460938 74.9375 143.460938 C 85.292969 143.460938 91.230469 137.527344 91.230469 127.171875 C 91.230469 125.375 89.769531 123.914062 87.972656 123.914062 Z M 87.972656 123.914062 "/>
<path style=" stroke:none;fill-rule:nonzero;fill:rgb(56.470588%,64.313725%,68.235294%);fill-opacity:1;" d="M 97.609375 80.617188 C 97.5 80.253906 97.328125 79.910156 97.09375 79.601562 C 91.894531 72.667969 83.613281 68.523438 74.9375 68.523438 C 66.265625 68.523438 57.984375 72.667969 52.785156 79.601562 C 52.546875 79.910156 52.378906 80.261719 52.269531 80.617188 C 48.761719 92.363281 45.613281 103.757812 45.613281 114.140625 C 45.613281 126.089844 57.304688 130.429688 65.164062 130.429688 C 69.433594 130.429688 72.730469 129.230469 74.9375 126.957031 C 77.148438 129.238281 80.445312 130.429688 84.714844 130.429688 C 92.574219 130.429688 104.261719 126.089844 104.261719 114.140625 C 104.261719 103.757812 101.117188 92.363281 97.609375 80.617188 Z M 97.609375 80.617188 "/>
<path style=" stroke:none;fill-rule:nonzero;fill:rgb(25.882353%,25.882353%,25.882353%);fill-opacity:1;" d="M 74.9375 97.847656 C 60.238281 97.847656 58.648438 104.683594 58.648438 107.621094 C 58.648438 108.691406 59.167969 109.6875 60.042969 110.292969 C 60.917969 110.90625 62.035156 111.03125 63.03125 110.679688 C 65 109.949219 67.085938 110.203125 68.761719 111.363281 C 70.613281 112.652344 71.675781 114.851562 71.675781 117.398438 C 71.675781 119.195312 73.132812 120.65625 74.933594 120.65625 C 76.730469 120.65625 78.191406 119.195312 78.191406 117.398438 C 78.191406 114.851562 79.253906 112.652344 81.105469 111.363281 C 82.777344 110.191406 84.863281 109.941406 86.832031 110.679688 C 87.820312 111.042969 88.949219 110.90625 89.824219 110.292969 C 90.707031 109.6875 91.230469 108.691406 91.230469 107.621094 C 91.230469 104.683594 89.640625 97.847656 74.9375 97.847656 Z M 74.9375 97.847656 "/>
<path style=" stroke:none;fill-rule:nonzero;fill:rgb(25.882353%,25.882353%,25.882353%);fill-opacity:1;" d="M 58.648438 58.75 C 58.648438 62.347656 55.730469 65.265625 52.132812 65.265625 C 48.53125 65.265625 45.613281 62.347656 45.613281 58.75 C 45.613281 55.152344 48.53125 52.234375 52.132812 52.234375 C 55.730469 52.234375 58.648438 55.152344 58.648438 58.75 Z M 58.648438 58.75 "/>
<path style=" stroke:none;fill-rule:nonzero;fill:rgb(25.882353%,25.882353%,25.882353%);fill-opacity:1;" d="M 104.261719 58.75 C 104.261719 62.347656 101.34375 65.265625 97.746094 65.265625 C 94.148438 65.265625 91.230469 62.347656 91.230469 58.75 C 91.230469 55.152344 94.148438 52.234375 97.746094 52.234375 C 101.34375 52.234375 104.261719 55.152344 104.261719 58.75 Z M 104.261719 58.75 "/>
<path style=" stroke:none;fill-rule:nonzero;fill:rgb(27.058824%,35.294118%,39.215686%);fill-opacity:1;" d="M 32.777344 52.820312 C 32.648438 53.730469 32.582031 54.710938 32.582031 55.753906 L 35.839844 91.59375 C 35.90625 92.179688 36.101562 92.765625 36.425781 93.222656 C 36.816406 93.808594 37.273438 94.394531 37.730469 95.046875 C 42.746094 90.941406 45.613281 83.707031 45.613281 75.039062 C 45.613281 61.226562 38.773438 54.644531 32.777344 52.820312 Z M 29.324219 6.617188 C 14.726562 6.617188 0 19.714844 0 48.976562 C 0 75.824219 11.207031 94.132812 21.765625 97.652344 C 23.785156 98.371094 25.738281 98.695312 27.695312 98.695312 C 31.019531 98.695312 34.144531 97.71875 36.882812 95.761719 C 37.207031 95.566406 37.46875 95.304688 37.730469 95.046875 C 42.746094 90.941406 45.613281 83.707031 45.613281 75.039062 C 45.613281 61.226562 38.773438 54.644531 32.777344 52.820312 C 31.605469 52.429688 30.367188 52.234375 29.324219 52.234375 C 23.199219 52.234375 20.460938 58.816406 19.808594 60.640625 C 19.679688 59.074219 19.613281 57.316406 19.550781 55.425781 C 19.355469 47.867188 21.699219 43.890625 23.65625 41.871094 C 25.285156 40.175781 27.433594 39.199219 29.324219 39.199219 C 35.125 39.199219 37.992188 41.089844 38.839844 42.066406 C 40.921875 40.570312 43.398438 39.722656 45.875 39.394531 C 47.570312 30.859375 55.910156 26.167969 61.90625 26.167969 C 62.882812 26.167969 63.796875 26.234375 64.707031 26.363281 C 62.230469 17.304688 49.265625 6.617188 29.324219 6.617188 Z M 20.527344 64.289062 C 21.375 65.136719 22.613281 65.460938 23.785156 65.136719 C 25.023438 64.746094 26.195312 64.941406 27.109375 65.589844 C 28.542969 66.632812 29.324219 68.851562 29.324219 71.78125 C 29.324219 73.152344 26.976562 74.910156 26.066406 75.039062 C 24.304688 75.039062 21.503906 72.5 20.199219 63.960938 C 20.332031 64.09375 20.394531 64.222656 20.527344 64.289062 Z M 32.777344 52.820312 C 32.648438 53.730469 32.582031 54.710938 32.582031 55.753906 L 35.839844 91.59375 C 35.90625 92.179688 36.101562 92.765625 36.425781 93.222656 C 36.816406 93.808594 37.273438 94.394531 37.730469 95.046875 C 42.746094 90.941406 45.613281 83.707031 45.613281 75.039062 C 45.613281 61.226562 38.773438 54.644531 32.777344 52.820312 Z M 32.777344 52.820312 "/>
<path style=" stroke:none;fill-rule:nonzero;fill:rgb(27.058824%,35.294118%,39.215686%);fill-opacity:1;" d="M 120.554688 6.617188 C 100.613281 6.617188 87.644531 17.304688 85.171875 26.363281 C 86.082031 26.234375 86.996094 26.167969 87.972656 26.167969 C 93.964844 26.167969 102.308594 30.859375 104.003906 39.394531 C 106.542969 39.789062 108.953125 40.632812 111.105469 42.066406 C 111.953125 41.023438 114.820312 39.199219 120.554688 39.199219 C 122.441406 39.199219 124.59375 40.175781 126.222656 41.871094 C 128.175781 43.890625 130.523438 47.867188 130.328125 55.425781 C 130.261719 57.316406 130.199219 59.074219 130.066406 60.640625 C 129.414062 58.816406 126.679688 52.234375 120.554688 52.234375 C 119.511719 52.234375 118.339844 52.429688 117.164062 52.753906 C 111.167969 54.578125 104.261719 61.226562 104.261719 75.039062 C 104.261719 83.707031 107.128906 90.941406 112.148438 95.046875 C 112.410156 95.304688 112.667969 95.566406 112.996094 95.761719 C 115.730469 97.71875 118.859375 98.695312 122.183594 98.695312 C 124.136719 98.695312 126.09375 98.371094 128.113281 97.652344 C 138.667969 94.132812 149.878906 75.824219 149.878906 48.976562 C 149.878906 19.714844 135.152344 6.617188 120.554688 6.617188 Z M 123.878906 75.039062 C 122.898438 74.910156 120.554688 73.152344 120.554688 71.78125 C 120.554688 68.851562 121.335938 66.632812 122.769531 65.589844 C 123.355469 65.136719 124.074219 64.941406 124.855469 64.941406 C 125.246094 64.941406 125.703125 65.003906 126.09375 65.136719 C 127.265625 65.460938 128.503906 65.136719 129.351562 64.289062 C 129.480469 64.222656 129.546875 64.09375 129.675781 63.960938 C 128.375 72.5 125.570312 75.039062 123.878906 75.039062 Z M 123.878906 75.039062 "/>
<path style=" stroke:none;fill-rule:nonzero;fill:rgb(0%,0%,0%);fill-opacity:1;" d="M 27.699219 98.6875 C 25.765625 98.6875 23.773438 98.355469 21.765625 97.679688 C 11.214844 94.121094 0 75.835938 0 48.976562 C 0 19.714844 14.726562 6.617188 29.324219 6.617188 C 51.53125 6.617188 65.164062 19.898438 65.164062 29.425781 C 65.164062 31.222656 63.703125 32.683594 61.90625 32.683594 C 60.105469 32.683594 58.648438 31.222656 58.648438 29.425781 C 58.648438 23.894531 48.300781 13.136719 29.324219 13.136719 C 15.683594 13.136719 6.515625 27.535156 6.515625 48.976562 C 6.515625 74 16.855469 89.144531 23.847656 91.5 C 27.316406 92.660156 30.511719 92.296875 33.082031 90.457031 C 36.910156 87.714844 39.097656 82.097656 39.097656 75.039062 C 39.097656 62.730469 32.511719 58.75 29.324219 58.75 C 29.050781 58.75 28.769531 58.851562 28.503906 59.023438 C 29.382812 59.347656 30.222656 59.792969 30.992188 60.363281 C 34.121094 62.6875 35.839844 66.738281 35.839844 71.78125 C 35.839844 77.179688 29.921875 81.558594 26.066406 81.558594 C 21.414062 81.558594 13.527344 78.175781 13.035156 55.5625 C 12.816406 45.753906 16.167969 40.230469 19.007812 37.324219 C 21.894531 34.378906 25.65625 32.683594 29.324219 32.683594 C 39.523438 32.683594 45.613281 37.65625 45.613281 42.457031 C 45.613281 44.257812 44.15625 45.714844 42.355469 45.714844 C 40.558594 45.714844 39.097656 44.257812 39.097656 42.457031 C 38.910156 41.8125 36.074219 39.199219 29.324219 39.199219 C 27.421875 39.199219 25.308594 40.199219 23.667969 41.878906 C 21.699219 43.890625 19.386719 47.878906 19.550781 55.417969 C 19.589844 57.328125 19.6875 59.070312 19.824219 60.652344 C 20.476562 58.816406 23.222656 52.234375 29.324219 52.234375 C 35.625 52.234375 45.613281 58.425781 45.613281 75.039062 C 45.613281 84.222656 42.433594 91.769531 36.890625 95.757812 C 34.171875 97.703125 31.03125 98.6875 27.699219 98.6875 Z M 20.226562 63.996094 C 21.511719 72.507812 24.300781 75.039062 26.066406 75.039062 C 26.976562 74.929688 29.324219 73.125 29.324219 71.78125 C 29.324219 68.855469 28.535156 66.660156 27.109375 65.605469 C 26.183594 64.921875 24.988281 64.738281 23.753906 65.128906 C 22.597656 65.488281 21.339844 65.160156 20.496094 64.308594 C 20.394531 64.203125 20.304688 64.101562 20.226562 63.996094 Z M 20.226562 63.996094 "/>
<path style=" stroke:none;fill-rule:nonzero;fill:rgb(0%,0%,0%);fill-opacity:1;" d="M 48.875 114.140625 C 47.074219 114.140625 45.613281 112.679688 45.613281 110.882812 C 45.613281 108.007812 40.851562 99.472656 36.433594 93.207031 C 35.398438 91.734375 35.75 89.710938 37.222656 88.671875 C 38.695312 87.625 40.722656 87.984375 41.765625 89.457031 C 43.492188 91.90625 52.132812 104.476562 52.132812 110.882812 C 52.132812 112.679688 50.671875 114.140625 48.875 114.140625 Z M 48.875 114.140625 "/>
<path style=" stroke:none;fill-rule:nonzero;fill:rgb(0%,0%,0%);fill-opacity:1;" d="M 61.90625 71.78125 C 61.519531 71.78125 61.128906 71.710938 60.753906 71.574219 C 59.070312 70.9375 58.21875 69.058594 58.855469 67.371094 C 59.421875 65.871094 60.21875 64.355469 61.078125 62.730469 C 63.09375 58.957031 65.164062 55.066406 65.164062 48.976562 C 65.164062 47.175781 66.625 45.714844 68.421875 45.714844 C 70.21875 45.714844 71.679688 47.175781 71.679688 48.976562 C 71.679688 56.691406 68.996094 61.734375 66.832031 65.792969 C 66.109375 67.15625 65.429688 68.414062 64.949219 69.679688 C 64.460938 70.980469 63.222656 71.78125 61.90625 71.78125 Z M 61.90625 71.78125 "/>
<path style=" stroke:none;fill-rule:nonzero;fill:rgb(0%,0%,0%);fill-opacity:1;" d="M 74.9375 91.332031 C 73.140625 91.332031 71.679688 89.871094 71.679688 88.074219 L 71.679688 75.039062 C 71.679688 73.242188 73.140625 71.78125 74.9375 71.78125 C 76.738281 71.78125 78.195312 73.242188 78.195312 75.039062 L 78.195312 88.074219 C 78.195312 89.871094 76.738281 91.332031 74.9375 91.332031 Z M 74.9375 91.332031 "/>
<path style=" stroke:none;fill-rule:nonzero;fill:rgb(0%,0%,0%);fill-opacity:1;" d="M 52.132812 65.265625 C 48.539062 65.265625 45.613281 62.347656 45.613281 58.75 C 45.613281 55.152344 48.539062 52.234375 52.132812 52.234375 C 55.722656 52.234375 58.648438 55.152344 58.648438 58.75 C 58.648438 62.347656 55.722656 65.265625 52.132812 65.265625 Z M 52.132812 58.742188 C 52.132812 58.75 52.132812 58.75 52.132812 58.742188 L 55.390625 58.75 Z M 52.132812 58.742188 "/>
<path style=" stroke:none;fill-rule:nonzero;fill:rgb(0%,0%,0%);fill-opacity:1;" d="M 52.132812 35.941406 C 51.296875 35.941406 50.464844 35.625 49.824219 34.992188 C 43.476562 28.644531 38.644531 26.167969 32.582031 26.167969 C 26.429688 26.167969 21.171875 28.996094 21.113281 29.019531 C 19.542969 29.882812 17.5625 29.300781 16.695312 27.730469 C 15.835938 26.152344 16.402344 24.179688 17.972656 23.3125 C 18.246094 23.164062 24.710938 19.652344 32.582031 19.652344 C 40.480469 19.652344 46.8125 22.757812 54.4375 30.375 C 55.707031 31.648438 55.707031 33.714844 54.4375 34.984375 C 53.800781 35.625 52.964844 35.941406 52.132812 35.941406 Z M 52.132812 35.941406 "/>
<path style=" stroke:none;fill-rule:nonzero;fill:rgb(0%,0%,0%);fill-opacity:1;" d="M 74.9375 143.460938 C 64.582031 143.460938 58.648438 137.527344 58.648438 127.171875 C 58.648438 125.375 60.105469 123.914062 61.90625 123.914062 C 63.703125 123.914062 65.164062 125.375 65.164062 127.171875 C 65.164062 133.929688 68.175781 136.945312 74.9375 136.945312 C 81.703125 136.945312 84.714844 133.929688 84.714844 127.171875 C 84.714844 125.375 86.171875 123.914062 87.972656 123.914062 C 89.769531 123.914062 91.230469 125.375 91.230469 127.171875 C 91.230469 137.527344 85.292969 143.460938 74.9375 143.460938 Z M 74.9375 143.460938 "/>
<path style=" stroke:none;fill-rule:nonzero;fill:rgb(0%,0%,0%);fill-opacity:1;" d="M 84.714844 130.429688 C 80.445312 130.429688 77.148438 129.230469 74.9375 126.957031 C 72.730469 129.238281 69.433594 130.429688 65.164062 130.429688 C 57.304688 130.429688 45.613281 126.089844 45.613281 114.140625 C 45.613281 103.757812 48.761719 92.363281 52.269531 80.617188 C 52.785156 78.890625 54.582031 77.921875 56.320312 78.429688 C 58.046875 78.945312 59.027344 80.761719 58.511719 82.488281 C 55.148438 93.75 52.132812 104.636719 52.132812 114.140625 C 52.132812 123.796875 65.035156 123.914062 65.164062 123.914062 C 69.914062 123.914062 71.679688 122.148438 71.679688 117.398438 C 71.679688 114.851562 70.617188 112.652344 68.765625 111.363281 C 67.085938 110.195312 65 109.941406 63.039062 110.679688 C 62.042969 111.039062 60.921875 110.90625 60.046875 110.292969 C 59.167969 109.6875 58.648438 108.691406 58.648438 107.621094 C 58.648438 104.683594 60.238281 97.847656 74.9375 97.847656 C 89.640625 97.847656 91.230469 104.683594 91.230469 107.621094 C 91.230469 108.691406 90.707031 109.6875 89.835938 110.292969 C 88.957031 110.90625 87.828125 111.039062 86.84375 110.679688 C 84.871094 109.949219 82.789062 110.195312 81.117188 111.363281 C 79.257812 112.652344 78.195312 114.851562 78.195312 117.398438 C 78.195312 122.148438 79.964844 123.914062 84.714844 123.914062 C 84.84375 123.914062 97.746094 123.796875 97.746094 114.140625 C 97.746094 104.636719 94.730469 93.75 91.367188 82.496094 C 90.851562 80.769531 91.828125 78.949219 93.554688 78.4375 C 95.277344 77.929688 97.09375 78.898438 97.609375 80.625 C 101.117188 92.363281 104.261719 103.757812 104.261719 114.140625 C 104.261719 126.089844 92.574219 130.429688 84.714844 130.429688 Z M 70.15625 104.730469 C 70.964844 105.074219 71.746094 105.5 72.488281 106.019531 C 73.40625 106.660156 74.226562 107.402344 74.9375 108.230469 C 75.648438 107.402344 76.46875 106.660156 77.390625 106.019531 C 78.132812 105.5 78.914062 105.066406 79.722656 104.730469 C 76.957031 104.253906 72.917969 104.253906 70.15625 104.730469 Z M 70.15625 104.730469 "/>
<path style=" stroke:none;fill-rule:nonzero;fill:rgb(0%,0%,0%);fill-opacity:1;" d="M 122.175781 98.6875 C 118.851562 98.6875 115.703125 97.703125 112.996094 95.757812 C 107.441406 91.769531 104.261719 84.222656 104.261719 75.039062 C 104.261719 58.425781 114.253906 52.234375 120.554688 52.234375 C 126.652344 52.234375 129.402344 58.816406 130.054688 60.652344 C 130.191406 59.070312 130.289062 57.328125 130.328125 55.417969 C 130.492188 47.878906 128.175781 43.886719 126.210938 41.878906 C 124.566406 40.199219 122.457031 39.199219 120.554688 39.199219 C 113.804688 39.199219 110.96875 41.8125 110.773438 42.558594 C 110.773438 44.355469 109.320312 45.769531 107.519531 45.769531 C 105.722656 45.769531 104.261719 44.261719 104.261719 42.457031 C 104.261719 37.65625 110.355469 32.683594 120.554688 32.683594 C 124.222656 32.683594 127.984375 34.378906 130.871094 37.324219 C 133.71875 40.230469 137.058594 45.753906 136.84375 55.5625 C 136.351562 78.175781 128.464844 81.558594 123.8125 81.558594 C 119.953125 81.558594 114.035156 77.179688 114.035156 71.78125 C 114.035156 66.738281 115.757812 62.6875 118.890625 60.363281 C 119.660156 59.792969 120.5 59.347656 121.382812 59.023438 C 121.109375 58.851562 120.828125 58.75 120.554688 58.75 C 117.367188 58.75 110.78125 62.730469 110.78125 75.039062 C 110.78125 82.097656 112.96875 87.714844 116.792969 90.457031 C 119.367188 92.308594 122.5625 92.652344 126.027344 91.5 C 133.019531 89.144531 143.359375 74 143.359375 48.976562 C 143.359375 27.535156 134.191406 13.136719 120.554688 13.136719 C 101.578125 13.136719 91.230469 23.894531 91.230469 29.425781 C 91.230469 31.222656 89.769531 32.683594 87.972656 32.683594 C 86.171875 32.683594 84.714844 31.222656 84.714844 29.425781 C 84.714844 19.898438 98.34375 6.617188 120.554688 6.617188 C 135.152344 6.617188 149.878906 19.714844 149.878906 48.976562 C 149.878906 75.835938 138.664062 94.121094 128.113281 97.679688 C 126.105469 98.355469 124.105469 98.6875 122.175781 98.6875 Z M 124.855469 64.925781 C 124.085938 64.925781 123.367188 65.15625 122.769531 65.605469 C 121.339844 66.660156 120.554688 68.855469 120.554688 71.78125 C 120.554688 73.125 122.898438 74.929688 123.859375 75.039062 C 125.589844 75.039062 128.367188 72.507812 129.652344 63.996094 C 129.566406 64.105469 129.480469 64.203125 129.375 64.308594 C 128.53125 65.160156 127.265625 65.488281 126.121094 65.128906 C 125.6875 64.992188 125.265625 64.925781 124.855469 64.925781 Z M 124.855469 64.925781 "/>
<path style=" stroke:none;fill-rule:nonzero;fill:rgb(0%,0%,0%);fill-opacity:1;" d="M 101.003906 114.140625 C 99.207031 114.140625 97.746094 112.679688 97.746094 110.882812 C 97.746094 104.476562 106.386719 91.90625 108.113281 89.457031 C 109.148438 87.976562 111.183594 87.625 112.65625 88.671875 C 114.128906 89.710938 114.480469 91.742188 113.445312 93.207031 C 109.027344 99.472656 104.261719 108.007812 104.261719 110.882812 C 104.261719 112.679688 102.804688 114.140625 101.003906 114.140625 Z M 101.003906 114.140625 "/>
<path style=" stroke:none;fill-rule:nonzero;fill:rgb(0%,0%,0%);fill-opacity:1;" d="M 87.972656 71.78125 C 86.65625 71.78125 85.417969 70.980469 84.921875 69.679688 C 84.445312 68.421875 83.761719 67.15625 83.039062 65.792969 C 80.882812 61.734375 78.195312 56.691406 78.195312 48.976562 C 78.195312 47.175781 79.65625 45.714844 81.457031 45.714844 C 83.253906 45.714844 84.714844 47.175781 84.714844 48.976562 C 84.714844 55.066406 86.785156 58.957031 88.792969 62.730469 C 89.652344 64.355469 90.449219 65.867188 91.015625 67.371094 C 91.652344 69.058594 90.800781 70.9375 89.117188 71.574219 C 88.746094 71.710938 88.355469 71.78125 87.972656 71.78125 Z M 87.972656 71.78125 "/>
<path style=" stroke:none;fill-rule:nonzero;fill:rgb(0%,0%,0%);fill-opacity:1;" d="M 114.035156 58.75 C 112.238281 58.75 110.78125 57.289062 110.78125 55.492188 C 110.78125 49.007812 107.488281 45.714844 101.003906 45.714844 C 99.207031 45.714844 97.746094 44.257812 97.746094 42.457031 C 97.746094 36.046875 91.378906 32.683594 87.972656 32.683594 C 86.152344 32.683594 80.042969 33.023438 77.851562 37.402344 C 76.742188 39.605469 73.128906 39.605469 72.019531 37.402344 C 69.835938 33.023438 63.722656 32.683594 61.90625 32.683594 C 58.496094 32.683594 52.132812 36.046875 52.132812 42.457031 C 52.132812 44.257812 50.671875 45.714844 48.875 45.714844 C 42.390625 45.714844 39.097656 49.007812 39.097656 55.492188 C 39.097656 57.289062 37.640625 58.75 35.839844 58.75 C 34.042969 58.75 32.582031 57.289062 32.582031 55.492188 C 32.582031 44.988281 39.019531 40.398438 45.894531 39.410156 C 47.535156 30.851562 55.921875 26.167969 61.90625 26.167969 C 67.230469 26.167969 71.816406 27.785156 74.9375 30.652344 C 78.058594 27.785156 82.648438 26.167969 87.972656 26.167969 C 93.953125 26.167969 102.339844 30.851562 103.980469 39.410156 C 110.855469 40.398438 117.296875 44.988281 117.296875 55.492188 C 117.296875 57.289062 115.835938 58.75 114.035156 58.75 Z M 114.035156 58.75 "/>
<path style=" stroke:none;fill-rule:nonzero;fill:rgb(0%,0%,0%);fill-opacity:1;" d="M 97.746094 65.265625 C 94.15625 65.265625 91.230469 62.347656 91.230469 58.75 C 91.230469 55.152344 94.15625 52.234375 97.746094 52.234375 C 101.335938 52.234375 104.261719 55.152344 104.261719 58.75 C 104.261719 62.347656 101.335938 65.265625 97.746094 65.265625 Z M 97.746094 58.75 L 94.488281 58.75 Z M 97.746094 58.75 "/>
<path style=" stroke:none;fill-rule:nonzero;fill:rgb(0%,0%,0%);fill-opacity:1;" d="M 97.746094 35.941406 C 96.914062 35.941406 96.078125 35.625 95.441406 34.992188 C 94.167969 33.71875 94.167969 31.65625 95.441406 30.382812 C 103.0625 22.757812 109.398438 19.652344 117.296875 19.652344 C 125.167969 19.652344 131.632812 23.164062 131.90625 23.3125 C 133.476562 24.179688 134.050781 26.152344 133.183594 27.730469 C 132.316406 29.296875 130.335938 29.882812 128.765625 29.019531 C 128.707031 28.996094 123.445312 26.167969 117.296875 26.167969 C 111.234375 26.167969 106.402344 28.644531 100.050781 34.992188 C 99.414062 35.625 98.582031 35.941406 97.746094 35.941406 Z M 97.746094 35.941406 "/>
</g>
</svg>
